PathFileType	4	(X/Y/Z)	SUBJ51_1_walk_RCNL2025.trc
DataRate	CameraRate	NumFrames	NumMarkers	Units	OrigDataRate	OrigDataStartFrame	OrigNumFrames
100	100	11	25	mm	100	91	241
Frame#	Time	R_Shoulder			L_Shoulder			C7			J_Notch			R_Elbow			L_Elbow			R_Wrist			L_Wrist			R_Asis			L_Asis			Sacral			Thoracic			Sternum			R_Thigh_Lateral			R_Knee_Lateral			R_Shank_Lateral			R_Ankle_Lateral			R_Heel			R_Toe			L_Thigh_Lateral			L_Knee_Lateral			L_Shank_Lateral			L_Ankle_Lateral			L_Heel			L_Toe		
		X1	Y1	Z1	X2	Y2	Z2	X3	Y3	Z3	X4	Y4	Z4	X5	Y5	Z5	X6	Y6	Z6	X7	Y7	Z7	X8	Y8	Z8	X9	Y9	Z9	X10	Y10	Z10	X11	Y11	Z11	X12	Y12	Z12	X13	Y13	Z13	X14	Y14	Z14	X15	Y15	Z15	X16	Y16	Z16	X17	Y17	Z17	X18	Y18	Z18	X19	Y19	Z19	X20	Y20	Z20	X21	Y21	Z21	X22	Y22	Z22	X23	Y23	Z23	X24	Y24	Z24	X25	Y25	Z25
91	0.90000000	-105.356087	1464.712158	4.411952	-112.819275	1494.598755	-449.783905	-198.161667	1598.869873	-228.349426	-53.650135	1482.780151	-228.922379	-190.490036	1163.526123	79.837181	-168.669205	1180.778687	-544.055725	-112.864338	903.291077	72.994730	-59.139935	942.249908	-530.409485	-58.525490	1048.083374	-98.785629	-67.103287	1023.546936	-339.009247	-282.748627	1068.803101	-222.305298	-299.380402	1391.598267	-228.951721	-11.128803	1253.739990	-237.429932	-72.394516	648.479675	-32.784428	-78.008217	525.005493	-87.374283	-108.039413	304.880280	-34.548744	-128.743256	76.153526	-162.214554	-177.808655	72.221016	-221.506409	30.609879	47.188217	-179.467331	-88.995583	643.901550	-474.471069	-86.915504	534.847595	-430.389099	-227.328888	426.798431	-464.604950	-420.284119	253.811035	-352.342468	-431.497314	291.672455	-285.904846	-367.745209	102.734329	-352.560516
92	0.91000000	-90.441643	1467.013184	4.742343	-101.094635	1495.381836	-449.436554	-184.716537	1600.206299	-227.581665	-40.324570	1483.950317	-228.573898	-169.805466	1165.357788	82.514107	-161.453918	1181.486328	-541.739563	-85.264368	907.398102	76.618641	-60.231554	939.090698	-528.850403	-46.142967	1049.356323	-97.418373	-53.495644	1025.544067	-337.391205	-269.657867	1070.207153	-221.910812	-286.118988	1392.964966	-227.160110	1.778406	1255.087036	-236.732071	-66.180229	648.384277	-31.975039	-74.285378	524.813965	-86.546837	-106.629349	304.927155	-34.049427	-128.589813	76.175224	-162.275330	-177.700912	72.454788	-221.399704	30.662062	47.101963	-179.410294	-66.692902	647.438477	-474.284790	-62.578938	538.211914	-429.486694	-200.464279	427.382812	-463.430389	-388.067383	247.868225	-351.034943	-401.239410	284.891205	-284.619080	-327.803162	99.995758	-352.464264
93	0.92000000	-75.582909	1469.218140	5.026266	-89.401329	1496.009644	-449.090881	-171.329453	1601.352173	-226.849701	-27.045586	1484.943115	-228.283035	-149.282990	1167.225586	85.218391	-154.324448	1182.171997	-539.513306	-57.667351	911.825989	80.133446	-61.491756	936.258575	-527.222534	-33.887798	1050.552368	-96.095772	-39.895409	1027.331055	-335.653259	-256.607239	1071.384766	-221.543335	-272.896332	1394.150513	-225.446198	14.651666	1256.265869	-236.077652	-60.128666	648.270691	-31.216764	-70.798271	524.652954	-85.727036	-105.580139	305.042175	-33.570797	-128.449692	76.201149	-162.347458	-177.583984	72.669930	-221.324387	30.707680	47.022816	-179.363602	-44.716782	650.906677	-473.972595	-38.760307	541.428650	-428.400543	-173.582245	427.105499	-462.341919	-355.144501	240.610077	-349.950348	-370.477631	276.812561	-283.706177	-286.891022	96.597282	-351.961731
94	0.93000000	-60.769936	1471.275513	5.259391	-77.724121	1496.445435	-448.759064	-157.982224	1602.304810	-226.152710	-13.804690	1485.750244	-228.048233	-128.953781	1169.085205	87.961723	-147.307602	1182.792114	-537.388794	-30.134211	916.533478	83.506729	-62.856752	933.735840	-525.534149	-21.712399	1051.606689	-94.823067	-26.306299	1028.880615	-333.843506	-243.593811	1072.340332	-221.196671	-259.698730	1395.151001	-223.815948	27.509506	1257.254761	-235.468079	-54.200493	648.146912	-30.509005	-67.525719	524.529785	-84.906250	-104.834427	305.218353	-33.087402	-128.326080	76.255135	-162.405670	-177.461960	72.889305	-221.251465	30.739365	46.952301	-179.318298	-23.113449	654.238220	-473.504517	-15.481978	544.449463	-427.143127	-146.680496	425.959564	-461.287964	-321.489990	232.181976	-349.046387	-339.170654	267.512360	-283.091095	-245.066971	92.723465	-351.159790
95	0.94000000	-45.994633	1473.137695	5.435759	-66.048248	1496.656860	-448.454437	-144.654633	1603.062134	-225.494614	-0.591295	1486.363770	-227.866089	-108.827919	1170.897095	90.750290	-140.417847	1183.311523	-535.374390	-2.718244	921.476837	86.718143	-64.261757	931.495819	-523.798157	-9.574745	1052.464355	-93.606964	-12.732631	1030.167603	-332.017914	-230.613937	1073.085815	-220.875580	-246.512848	1395.962524	-222.277603	40.368431	1258.031372	-234.897491	-48.361229	648.019348	-29.842659	-64.433746	524.449707	-84.075623	-104.282455	305.450775	-32.574867	-128.221558	76.358459	-162.423416	-177.329636	73.134468	-221.156647	30.747679	46.892323	-179.263062	-1.923237	657.360107	-472.848480	7.236428	547.233948	-425.721130	-119.771179	423.990112	-460.222015	-287.080292	222.746979	-348.274994	-307.246613	257.085419	-282.681030	-202.414413	88.551590	-350.187225
96	0.95000000	-31.251984	1474.764282	5.549981	-54.360912	1496.619263	-448.189545	-131.326172	1603.620239	-224.883026	12.607749	1486.775024	-227.731445	-88.898697	1172.629395	93.584419	-133.654144	1183.704224	-533.473694	24.534294	926.612854	89.758575	-65.640575	929.504852	-522.029724	2.549425	1053.073730	-92.451073	0.821539	1031.170654	-330.231598	-217.663757	1073.636963	-220.593323	-233.326553	1396.580566	-220.842438	53.242123	1258.576050	-234.351883	-42.582573	647.889893	-29.204414	-61.473328	524.415283	-83.231369	-103.797890	305.740479	-32.017807	-128.136551	76.524971	-162.381958	-177.173492	73.420189	-221.028900	30.724562	46.844856	-179.187225	18.820656	660.207336	-471.977844	29.375998	549.747620	-424.138214	-92.878677	421.274719	-459.109283	-251.901382	212.486069	-347.588654	-274.615112	245.653854	-282.376465	-159.045929	84.246338	-349.183258
97	0.96000000	-16.542505	1476.123413	5.599944	-42.653141	1496.318481	-447.975006	-117.978622	1603.973511	-224.327271	25.806971	1486.975464	-227.638489	-69.149101	1174.260498	96.460144	-126.998947	1183.954468	-531.683411	51.582055	931.901154	92.627750	-66.924969	927.727753	-520.244400	14.662957	1053.383545	-91.351654	14.353571	1031.874512	-328.533997	-204.740524	1074.010620	-220.367081	-220.129898	1397.000000	-219.524979	66.140755	1258.873657	-233.812424	-36.839279	647.752563	-28.581423	-58.583408	524.423828	-82.378036	-103.277199	306.094696	-31.414965	-128.068024	76.762383	-162.274765	-176.987610	73.758980	-220.866470	30.667576	46.811390	-179.083099	39.091217	662.730957	-470.876831	50.916183	551.957153	-422.402496	-66.041283	417.907318	-457.924133	-215.953583	201.595322	-346.946655	-241.181335	233.370041	-282.084198	-115.099304	79.956047	-348.284851
98	0.97000000	-1.871734	1477.193970	5.587505	-30.921202	1495.752563	-447.819824	-104.598427	1604.115845	-223.836517	39.019604	1486.958130	-227.583130	-49.556683	1175.780029	99.369545	-120.417900	1184.059692	-529.993652	78.386415	937.305298	95.331173	-68.046661	926.134796	-518.457397	26.757225	1053.350830	-90.298927	27.863960	1032.272461	-326.966156	-191.842804	1074.220825	-220.213165	-206.916122	1397.218018	-218.340546	79.070473	1258.914429	-233.261459	-31.104277	647.594360	-27.966234	-55.694523	524.465881	-81.529900	-102.657944	306.520416	-30.780819	-128.009811	77.075188	-162.107712	-176.787033	74.167839	-220.670334	30.584751	46.791821	-178.949188	58.863274	664.896545	-469.543823	71.835754	553.826843	-420.532166	-39.311073	413.987396	-456.646515	-179.253876	190.280334	-346.320312	-206.860489	220.414459	-281.727234	-70.727943	75.813133	-347.613159
99	0.98000000	12.753466	1477.966187	5.517474	-19.165817	1494.930908	-447.730469	-91.177582	1604.041626	-223.418655	52.255981	1486.718262	-227.565506	-30.098112	1177.187500	102.300240	-113.862495	1184.030518	-528.391479	104.909134	942.792358	97.877472	-68.941433	924.707031	-516.683136	38.822914	1052.953125	-89.282654	41.357357	1032.365601	-325.558929	-178.968933	1074.274780	-220.144516	-193.681747	1397.234985	-217.301636	92.034294	1258.692261	-232.687103	-25.346458	647.397766	-27.357786	-52.730442	524.525391	-80.708092	-101.911926	307.016449	-30.141775	-127.953339	77.466545	-161.895981	-176.599213	74.666229	-220.444443	30.497839	46.783295	-178.793198	78.110916	666.680176	-467.993164	92.116394	555.317566	-418.555573	-12.750451	409.614136	-455.262604	-141.836487	178.749374	-345.695190	-171.592789	206.989426	-281.250183	-26.088654	71.938560	-347.261627
100	0.99000000	27.327374	1478.442627	5.396108	-7.387903	1493.873535	-447.709961	-77.713264	1603.747437	-223.079529	65.523575	1486.253418	-227.590256	-10.754440	1178.489380	105.235680	-107.276672	1183.888306	-526.866089	131.111317	948.331451	100.276463	-69.551655	923.435272	-514.933289	50.854099	1052.192993	-88.296066	54.839634	1032.159790	-324.330261	-166.115662	1074.169678	-220.169662	-180.425171	1397.053101	-216.415909	105.034004	1258.202148	-232.084412	-19.529676	647.143555	-26.757660	-49.609497	524.580566	-79.934334	-101.024658	307.570587	-29.527134	-127.887856	77.938042	-161.659378	-176.441406	75.266586	-220.199142	30.437227	46.780071	-178.629822	96.808861	668.064941	-466.253601	111.746254	556.390015	-416.507080	13.573330	404.882690	-453.767059	-103.751427	167.206696	-345.070526	-135.355347	193.309296	-280.622101	18.669884	68.446434	-347.287109
101	1.00000000	41.845901	1478.636230	5.228798	4.416936	1492.608398	-447.757812	-64.206314	1603.232178	-222.822311	78.827652	1485.563110	-227.663422	8.485706	1179.695557	108.156616	-100.604630	1183.658447	-525.411804	156.955849	953.894440	102.537258	-69.826773	922.315399	-513.215744	62.849270	1051.095703	-87.336937	68.310753	1031.661377	-323.280914	-153.277893	1073.893677	-220.292114	-167.144806	1396.675415	-215.686096	118.071045	1257.442139	-231.456131	-13.610806	646.811829	-26.166246	-46.247181	524.605957	-79.224915	-99.976425	308.163422	-28.959980	-127.801926	78.486351	-161.418427	-176.308167	75.967865	-219.950394	30.429073	46.774792	-178.473831	114.931915	669.035156	-464.362915	130.721756	557.007385	-414.422516	39.594898	399.879791	-452.163269	-65.061302	155.845261	-344.457642	-98.168983	179.589523	-279.838776	63.415379	65.445610	-347.704651
